<svg width="16" height="16" viewBox="0 0 16 16" fill="none" xmlns="http://www.w3.org/2000/svg">
<g clip-path="url(#clip0_15_978)">
<path d="M14.2232 7.21429L7.59821 13.8304C7.48512 13.9435 7.35119 14 7.19643 14C7.04167 14 6.90774 13.9435 6.79464 13.8304L0.169643 7.21429C0.0565476 7.10119 0 6.96577 0 6.80804C0 6.6503 0.0565476 6.51488 0.169643 6.40179L1.65179 4.92857C1.76488 4.81548 1.89881 4.75893 2.05357 4.75893C2.20833 4.75893 2.34226 4.81548 2.45536 4.92857L7.19643 9.66964L11.9375 4.92857C12.0506 4.81548 12.1845 4.75893 12.3393 4.75893C12.494 4.75893 12.628 4.81548 12.7411 4.92857L14.2232 6.40179C14.3363 6.51488 14.3929 6.6503 14.3929 6.80804C14.3929 6.96577 14.3363 7.10119 14.2232 7.21429Z" fill="white"/>
</g>
<defs>
<clipPath id="clip0_15_978">
<rect width="16" height="16" fill="white" transform="matrix(1 0 0 -1 0 16)"/>
</clipPath>
</defs>
</svg>
